<svg version="1.1" id="Layer_1" xmlns="http://www.w3.org/2000/svg" xmlns:xlink="http://www.w3.org/1999/xlink" x="0px" y="0px"
	 width="100%" viewBox="0 0 559 447" enable-background="new 0 0 559 447" xml:space="preserve">
<path fill="#000000" opacity="1.000000" stroke="none" 
	d="
M336.000000,448.000000 
	C224.000031,448.000000 112.500053,448.000000 1.000060,448.000000 
	C1.000040,299.000061 1.000040,150.000122 1.000020,1.000140 
	C187.333237,1.000093 373.666473,1.000093 559.999756,1.000047 
	C559.999878,149.999863 559.999878,298.999725 559.999939,447.999786 
	C485.500000,448.000000 411.000000,448.000000 336.000000,448.000000 
M467.000732,247.292511 
	C467.334045,241.873550 468.007904,236.450073 467.936371,231.036469 
	C467.728729,215.328125 466.520813,199.761932 463.142761,184.297043 
	C458.632599,163.649521 450.667633,144.487106 439.866425,126.534744 
	C429.999146,110.134651 417.945068,95.469254 403.440430,82.722595 
	C390.810883,71.623749 377.312592,61.832764 362.419220,54.310814 
	C339.335510,42.652306 314.692108,35.498199 288.799469,34.191044 
	C274.435028,33.465874 259.842621,33.584991 245.589386,35.294495 
	C229.189056,37.261501 213.258682,41.954037 197.891251,48.486584 
	C169.892944,60.388412 145.750793,77.301888 125.853951,100.475906 
	C112.556168,115.963936 102.119858,133.053131 94.033875,151.685104 
	C84.167091,174.420410 79.378525,198.370041 79.253502,222.975464 
	C79.181587,237.127991 81.124008,251.368973 83.107071,265.436584 
	C86.671761,290.724152 97.389069,313.364197 111.171425,334.517426 
	C122.608536,352.071106 136.619568,367.589539 153.635742,379.853973 
	C165.195419,388.185608 177.347092,396.019562 190.122482,402.256104 
	C204.941635,409.490295 220.691513,414.652435 237.248917,417.173157 
	C252.462845,419.489349 267.489746,421.493042 283.031616,420.240051 
	C296.706970,419.137512 310.102539,417.514832 323.449768,414.169739 
	C340.777039,409.827209 357.097137,403.140961 372.210632,393.978638 
	C383.787628,386.960236 394.631317,378.595276 405.167786,370.048401 
	C411.559235,364.863831 416.745056,358.192932 422.193024,352.482758 
	C422.082916,352.238586 422.628204,353.212921 422.975769,354.253296 
	C427.998352,369.287415 433.085724,384.300995 437.946106,399.387604 
	C439.603149,404.531036 443.218079,407.145447 448.102692,407.918152 
	C453.963837,408.845367 458.467346,406.344269 461.144531,401.417572 
	C463.909271,396.329742 466.661926,391.235260 469.395081,386.130402 
	C471.009247,383.115509 472.575378,380.074890 474.301849,376.781250 
	C485.472656,387.963928 496.176788,398.700623 506.906738,409.411499 
	C512.048828,414.544403 519.992249,414.487793 525.182556,409.314545 
	C530.139648,404.373779 535.080322,399.416626 540.021240,394.459717 
	C546.896484,387.562286 546.928223,380.434052 540.065063,373.588745 
	C529.699219,363.249786 519.304626,352.939667 508.867981,342.563263 
	C517.504333,337.725647 525.628296,332.804871 534.098022,328.576721 
	C538.791504,326.233734 539.628357,321.820374 539.684753,318.115234 
	C539.761902,313.046692 536.944397,308.379364 531.714478,306.334930 
	C525.002502,303.711090 518.188049,301.338470 511.365265,299.011261 
	C492.376465,292.534302 473.360596,286.136627 455.673645,280.153595 
	C458.017822,277.436432 461.786163,274.919281 462.731476,271.598511 
	C464.889038,264.019348 465.664001,256.046631 467.000732,247.292511 
z"/>
<path fill="#FFFFFF" opacity="1.000000" stroke="none" 
	d="
M467.000702,247.763153 
	C465.664001,256.046631 464.889038,264.019348 462.731476,271.598511 
	C461.786163,274.919281 458.017822,277.436432 455.673645,280.153595 
	C473.360596,286.136627 492.376465,292.534302 511.365265,299.011261 
	C518.188049,301.338470 525.002502,303.711090 531.714478,306.334930 
	C536.944397,308.379364 539.761902,313.046692 539.684753,318.115234 
	C539.628357,321.820374 538.791504,326.233734 534.098022,328.576721 
	C525.628296,332.804871 517.504333,337.725647 508.867981,342.563263 
	C519.304626,352.939667 529.699219,363.249786 540.065063,373.588745 
	C546.928223,380.434052 546.896484,387.562286 540.021240,394.459717 
	C535.080322,399.416626 530.139648,404.373779 525.182556,409.314545 
	C519.992249,414.487793 512.048828,414.544403 506.906738,409.411499 
	C496.176788,398.700623 485.472656,387.963928 474.301849,376.781250 
	C472.575378,380.074890 471.009247,383.115509 469.395081,386.130402 
	C466.661926,391.235260 463.909271,396.329742 461.144531,401.417572 
	C458.467346,406.344269 453.963837,408.845367 448.102692,407.918152 
	C443.218079,407.145447 439.603149,404.531036 437.946106,399.387604 
	C433.085724,384.300995 427.998352,369.287415 422.975769,354.253296 
	C422.628204,353.212921 422.082916,352.238586 422.193024,352.482758 
	C416.745056,358.192932 411.559235,364.863831 405.167786,370.048401 
	C394.631317,378.595276 383.787628,386.960236 372.210632,393.978638 
	C357.097137,403.140961 340.777039,409.827209 323.449768,414.169739 
	C310.102539,417.514832 296.706970,419.137512 283.031616,420.240051 
	C267.489746,421.493042 252.462845,419.489349 237.248917,417.173157 
	C220.691513,414.652435 204.941635,409.490295 190.122482,402.256104 
	C177.347092,396.019562 165.195419,388.185608 153.635742,379.853973 
	C136.619568,367.589539 122.608536,352.071106 111.171425,334.517426 
	C97.389069,313.364197 86.671761,290.724152 83.107071,265.436584 
	C81.124008,251.368973 79.181587,237.127991 79.253502,222.975464 
	C79.378525,198.370041 84.167091,174.420410 94.033875,151.685104 
	C102.119858,133.053131 112.556168,115.963936 125.853951,100.475906 
	C145.750793,77.301888 169.892944,60.388412 197.891251,48.486584 
	C213.258682,41.954037 229.189056,37.261501 245.589386,35.294495 
	C259.842621,33.584991 274.435028,33.465874 288.799469,34.191044 
	C314.692108,35.498199 339.335510,42.652306 362.419220,54.310814 
	C377.312592,61.832764 390.810883,71.623749 403.440430,82.722595 
	C417.945068,95.469254 429.999146,110.134651 439.866425,126.534744 
	C450.667633,144.487106 458.632599,163.649521 463.142761,184.297043 
	C466.520813,199.761932 467.728729,215.328125 467.936371,231.036469 
	C468.007904,236.450073 467.334045,241.873550 467.000702,247.763153 
M410.802765,322.220001 
	C411.137878,322.351929 411.472992,322.483826 411.808136,322.615723 
	C411.565247,322.052338 411.322357,321.488983 411.004669,320.130524 
	C408.757507,313.303925 406.340118,306.527588 404.304596,299.638428 
	C401.526489,290.236053 396.374817,281.184052 399.721802,270.430328 
	C392.469543,277.805420 383.510956,278.615814 374.901855,278.028809 
	C373.275055,286.844696 371.591644,295.078156 370.375519,303.380096 
	C370.157532,304.868225 371.437439,307.415222 372.761292,308.152466 
	C380.859039,312.661926 389.142456,316.843536 397.440186,320.981659 
	C398.521790,321.521088 400.303650,321.686523 401.308502,321.160492 
	C404.581665,319.446899 407.509735,319.679535 410.802765,322.220001 
M378.385590,270.998199 
	C389.606903,272.122559 400.213715,264.389130 399.040192,250.085831 
	C398.718750,246.168198 398.991364,242.201843 398.991364,238.224304 
	C412.575348,238.224304 425.657837,238.224304 439.509644,238.224304 
	C438.193115,247.555725 436.924835,256.545227 435.604584,265.903198 
	C440.873810,267.735779 446.571442,269.877197 452.398529,271.574188 
	C453.287537,271.833099 455.628235,270.220947 455.859528,269.160583 
	C459.716431,251.477127 461.624969,233.753525 460.266937,215.476593 
	C458.952209,197.781891 455.941101,180.624634 449.906677,164.064865 
	C439.436035,135.331146 423.213043,110.394058 400.385498,89.731369 
	C385.986633,76.698029 370.252747,66.040848 352.632019,57.851646 
	C332.037048,48.280159 310.433624,42.472321 287.937378,41.273918 
	C273.323273,40.495403 258.519165,41.782925 243.892334,43.138763 
	C227.063187,44.698746 211.093277,50.191647 195.792526,57.124546 
	C170.921173,68.393959 149.194855,83.988251 131.359070,104.991669 
	C117.238396,121.620171 106.256393,139.933517 98.367302,160.201385 
	C92.532433,175.191757 88.742302,190.760056 87.223961,206.676620 
	C86.148300,217.952682 86.223877,229.481384 87.209793,240.772964 
	C88.293076,253.179779 90.157440,265.657654 93.184975,277.727448 
	C100.195778,305.677216 114.251221,330.193695 133.311005,351.579895 
	C150.801956,371.205780 171.813553,386.315887 195.984619,397.067230 
	C220.257660,407.863922 245.676468,413.155090 272.062103,413.858521 
	C280.067627,414.071899 288.111572,412.598938 296.146301,412.013611 
	C311.148438,410.920776 325.477295,406.807648 339.483154,401.748535 
	C357.142792,395.369690 373.495850,386.249237 388.335602,374.794128 
	C397.542755,367.686951 405.841431,359.402832 414.152924,351.998779 
	C411.126160,342.994080 408.474548,335.105347 405.681091,326.794708 
	C403.996002,328.973450 402.814392,330.501190 402.265320,331.211090 
	C389.332520,324.928711 376.769989,318.967438 364.405212,312.620880 
	C363.032013,311.916016 361.880127,308.865234 362.162811,307.156708 
	C364.145172,295.175171 366.531494,283.260437 368.850311,270.997986 
	C371.478241,270.997986 374.454987,270.997986 378.385590,270.998199 
M472.984924,293.506256 
	C453.177643,286.973572 433.373230,280.432007 413.561127,273.913940 
	C408.100098,272.117340 405.624756,273.771759 406.082977,279.362732 
	C406.342865,282.533783 407.351898,285.694000 408.367767,288.744446 
	C415.623840,310.532349 422.976044,332.288239 430.282501,354.059387 
	C435.016388,368.164917 439.608093,382.320343 444.582367,396.340302 
	C445.252594,398.229401 447.788300,400.672180 449.463989,400.675140 
	C451.468170,400.678680 454.240173,398.788025 455.346710,396.925812 
	C459.455475,390.010895 463.061310,382.793793 466.770752,375.645905 
	C470.408691,368.635834 475.241302,367.764679 480.795715,373.292328 
	C491.063751,383.510864 501.312164,393.749329 511.529968,404.018097 
	C514.569153,407.072418 517.438843,407.079681 520.462158,404.021271 
	C525.143066,399.285828 529.908142,394.633545 534.598999,389.907745 
	C539.236084,385.236145 539.211060,382.717682 534.484863,377.977844 
	C524.608093,368.072510 514.703308,358.195160 504.819611,348.296722 
	C500.176819,343.647034 500.548187,339.281097 506.210297,336.024048 
	C513.490112,331.836426 521.058350,328.144043 528.271667,323.850830 
	C530.224548,322.688507 532.769897,319.891296 532.500488,318.265930 
	C532.132751,316.047333 529.702271,313.190887 527.512817,312.408539 
	C509.645935,306.024658 491.629150,300.060364 472.984924,293.506256 
M412.573608,245.000763 
	C410.468109,245.000763 408.362640,245.000763 407.013672,245.000763 
	C405.743195,253.045212 404.571777,260.462433 403.354950,268.167175 
	C412.560638,261.962280 420.721527,270.040375 429.747864,270.946136 
	C425.211853,262.026917 433.178345,253.814835 430.439270,245.000763 
	C424.837433,245.000763 419.198486,245.000763 412.573608,245.000763 
z"/>
<path fill="#010101" opacity="1.000000" stroke="none" 
	d="
M377.908630,270.998108 
	C374.454987,270.997986 371.478241,270.997986 368.850311,270.997986 
	C366.531494,283.260437 364.145172,295.175171 362.162811,307.156708 
	C361.880127,308.865234 363.032013,311.916016 364.405212,312.620880 
	C376.769989,318.967438 389.332520,324.928711 402.265320,331.211090 
	C402.814392,330.501190 403.996002,328.973450 405.681091,326.794708 
	C408.474548,335.105347 411.126160,342.994080 414.152924,351.998779 
	C405.841431,359.402832 397.542755,367.686951 388.335602,374.794128 
	C373.495850,386.249237 357.142792,395.369690 339.483154,401.748535 
	C325.477295,406.807648 311.148438,410.920776 296.146301,412.013611 
	C288.111572,412.598938 280.067627,414.071899 272.062103,413.858521 
	C245.676468,413.155090 220.257660,407.863922 195.984619,397.067230 
	C171.813553,386.315887 150.801956,371.205780 133.311005,351.579895 
	C114.251221,330.193695 100.195778,305.677216 93.184975,277.727448 
	C90.157440,265.657654 88.293076,253.179779 87.209793,240.772964 
	C86.223877,229.481384 86.148300,217.952682 87.223961,206.676620 
	C88.742302,190.760056 92.532433,175.191757 98.367302,160.201385 
	C106.256393,139.933517 117.238396,121.620171 131.359070,104.991669 
	C149.194855,83.988251 170.921173,68.393959 195.792526,57.124546 
	C211.093277,50.191647 227.063187,44.698746 243.892334,43.138763 
	C258.519165,41.782925 273.323273,40.495403 287.937378,41.273918 
	C310.433624,42.472321 332.037048,48.280159 352.632019,57.851646 
	C370.252747,66.040848 385.986633,76.698029 400.385498,89.731369 
	C423.213043,110.394058 439.436035,135.331146 449.906677,164.064865 
	C455.941101,180.624634 458.952209,197.781891 460.266937,215.476593 
	C461.624969,233.753525 459.716431,251.477127 455.859528,269.160583 
	C455.628235,270.220947 453.287537,271.833099 452.398529,271.574188 
	C446.571442,269.877197 440.873810,267.735779 435.604584,265.903198 
	C436.924835,256.545227 438.193115,247.555725 439.509644,238.224304 
	C425.657837,238.224304 412.575348,238.224304 398.991364,238.224304 
	C398.991364,242.201843 398.718750,246.168198 399.040192,250.085831 
	C400.213715,264.389130 389.606903,272.122559 377.908630,270.998108 
M168.619553,319.036194 
	C174.360214,316.503052 180.100861,313.969910 185.870346,311.424072 
	C183.719208,298.091064 181.569763,284.768585 179.346191,270.986633 
	C175.900696,270.986633 172.098389,270.877747 168.304230,271.007416 
	C157.711838,271.369415 148.673584,263.814148 148.986816,251.786575 
	C149.106155,247.204041 149.006226,242.615799 149.006226,238.314728 
	C134.875366,238.314728 121.464790,238.314728 107.882545,238.314728 
	C110.968872,273.657562 122.735130,305.081696 145.274872,332.082733 
	C153.119781,327.739563 160.561035,323.619904 168.619553,319.036194 
M181.454376,141.039230 
	C169.253250,134.997437 157.052124,128.955627 144.726212,122.852036 
	C126.938660,143.244629 110.574379,176.882492 108.124825,215.740204 
	C121.679359,215.740204 135.220901,215.740204 149.007172,215.740204 
	C149.007172,210.665939 148.982468,205.864639 149.012329,201.063675 
	C149.073883,191.165802 155.247986,184.518799 165.024765,183.972687 
	C168.657700,183.769775 172.315613,183.762222 175.950272,183.927170 
	C178.565323,184.045853 179.715118,183.431564 180.101913,180.490631 
	C181.564026,169.373428 183.024063,158.227722 185.295609,147.260605 
	C186.083496,143.456635 185.620514,142.078217 181.454376,141.039230 
M367.681091,140.031509 
	C365.640411,141.913788 361.111511,141.386169 361.989807,146.097305 
	C364.275421,158.356705 366.492371,170.628891 368.760010,183.023392 
	C372.035095,183.023392 375.481293,182.891785 378.914551,183.046631 
	C392.374237,183.653702 400.061462,190.444443 399.044800,203.878952 
	C398.748138,207.799240 398.999176,211.760971 398.999176,215.857727 
	C412.629333,215.857727 425.784454,215.857727 440.029846,215.857727 
	C437.713348,204.039444 436.142853,192.744598 433.218201,181.812012 
	C427.698792,161.180206 417.493896,142.736374 404.984772,125.511169 
	C402.832733,122.547829 400.782227,122.905418 397.923309,124.460678 
	C388.176910,129.762695 378.302032,134.828552 367.681091,140.031509 
M307.502228,78.055099 
	C300.968597,71.830620 294.151093,66.027992 284.659363,62.777550 
	C284.415771,64.932442 284.030792,66.773544 284.026642,68.615501 
	C283.983124,87.913620 283.982941,107.211906 284.018829,126.510063 
	C284.024628,129.643768 283.093140,133.982346 284.727112,135.570831 
	C286.354370,137.152847 290.722412,136.375748 293.789124,135.936920 
	C306.630096,134.099472 319.441803,132.048615 332.230194,129.875534 
	C332.979279,129.748245 334.122559,127.675697 333.896118,126.823692 
	C332.997284,123.441879 331.729523,120.143913 330.413605,116.889626 
	C324.809357,103.030426 317.881653,89.936058 307.502228,78.055099 
M317.346893,321.002716 
	C307.949707,319.972046 298.437683,319.518585 289.201172,317.680634 
	C284.167786,316.679047 283.945648,318.321503 283.959839,322.163483 
	C284.039185,343.613220 283.994934,365.063385 284.011108,386.513428 
	C284.012177,387.943359 284.163208,389.373138 284.263824,391.143372 
	C292.304504,389.202667 298.445404,384.727020 303.905579,379.495697 
	C318.410553,365.598541 326.285522,347.618408 333.757294,329.475372 
	C334.928040,326.632568 333.866913,324.577118 330.425751,323.938416 
	C326.320099,323.176361 322.287628,322.020081 317.346893,321.002716 
M262.999390,116.499809 
	C262.999390,98.799255 262.999390,81.098694 262.999390,63.398140 
	C262.421387,63.073814 261.843414,62.749489 261.265411,62.425163 
	C256.115082,65.840027 250.481003,68.709122 245.901733,72.768227 
	C229.736008,87.097694 220.807007,105.925430 213.892166,125.938385 
	C212.928558,128.727249 213.135605,129.536514 216.168411,130.090561 
	C225.885086,131.865616 235.490524,134.280701 245.233322,135.869919 
	C250.979019,136.807144 256.903351,136.649353 262.999390,136.998444 
	C262.999390,130.121719 262.999390,123.810646 262.999390,116.499809 
M250.535141,385.027496 
	C254.466766,387.167419 258.398407,389.307343 263.000671,391.812286 
	C263.000671,377.492645 263.000244,364.502258 263.000824,351.511841 
	C263.001312,341.347015 262.967987,331.181976 263.029114,321.017517 
	C263.044220,318.505066 262.629059,316.653229 259.503632,317.080902 
	C249.955658,318.387451 240.373840,319.490387 230.871658,321.071899 
	C224.859924,322.072449 218.966827,323.785919 211.867203,325.449951 
	C217.686417,337.588135 222.601791,348.940491 228.478073,359.771484 
	C233.756317,369.500153 240.856628,377.983826 250.535141,385.027496 
M284.999146,209.787903 
	C284.669769,213.216095 284.460144,216.660904 283.987640,220.069260 
	C282.751099,228.988785 284.596680,230.545685 293.941772,229.135727 
	C296.576263,228.738235 299.422180,229.542953 302.144226,229.968307 
	C306.980530,230.724075 307.927094,234.552231 306.733337,238.049774 
	C306.014862,240.154755 302.809540,242.539795 300.551666,242.725006 
	C297.196594,243.000259 293.440887,241.971893 290.320618,240.507629 
	C287.292145,239.086395 284.446655,238.242676 282.602509,241.110611 
	C280.733673,244.016998 281.828491,247.134201 284.775635,249.286057 
	C291.152283,253.941925 305.450470,255.155121 312.302124,249.261963 
	C317.488831,244.800873 319.796783,237.338913 317.714172,230.271393 
	C315.981903,224.392670 310.707214,220.546799 303.356659,220.009598 
	C300.664612,219.812866 297.946136,219.977890 295.279327,219.977890 
	C294.717896,212.017044 294.717896,212.017441 301.929260,212.015121 
	C305.424164,212.013992 308.920227,212.067581 312.413605,211.993607 
	C316.103271,211.915482 317.805328,209.094406 316.571381,206.490570 
	C315.584259,204.407623 312.319946,202.461472 309.878632,202.198761 
	C304.120514,201.579147 298.245087,202.154541 292.427185,201.953705 
	C287.443542,201.781647 285.117798,204.052765 284.999146,209.787903 
M290.561890,296.006897 
	C307.241638,298.375580 323.921356,300.744263 341.194916,303.197266 
	C342.923950,293.103638 344.769379,282.330475 346.654358,271.326538 
	C325.140472,271.326538 304.634033,271.326538 283.999725,271.326538 
	C283.999725,277.972870 284.288879,284.302734 283.903320,290.591217 
	C283.621857,295.182404 285.403503,296.645050 290.561890,296.006897 
M313.299103,155.986923 
	C303.590118,156.984543 293.881134,157.982162 284.229095,158.973923 
	C284.229095,167.248978 284.229095,175.001022 284.229095,182.903412 
	C304.963623,182.903412 325.449036,182.903412 346.868500,182.903412 
	C344.890411,171.436249 343.030975,160.657104 341.146362,149.731812 
	C331.519257,151.955307 322.852081,153.957092 313.299103,155.986923 
M228.050552,299.441589 
	C238.626465,298.294891 249.208939,297.202332 259.768829,295.923248 
	C260.908813,295.785156 262.824585,294.592468 262.847351,293.842499 
	C263.077240,286.264374 262.987457,278.676544 262.987457,271.304749 
	C242.257080,271.304749 222.178665,271.304749 201.186829,271.304749 
	C202.876602,281.734283 204.420486,291.719177 206.156952,301.670410 
	C206.608612,304.258789 208.395294,304.170715 210.727280,303.560547 
	C216.203842,302.127563 221.795120,301.132874 228.050552,299.441589 
M204.023041,161.788925 
	C203.346970,167.464722 203.085464,173.231918 201.860977,178.786819 
	C200.916183,183.072861 202.590836,183.337021 206.005219,183.345261 
	C223.987061,183.388657 241.968475,183.655441 259.949982,183.650330 
	C260.969360,183.650040 262.839691,181.955353 262.872040,181.000458 
	C263.118927,173.707687 263.007446,166.402802 263.007446,159.198669 
	C260.784149,158.736755 259.007507,158.056732 257.226929,158.046280 
	C241.089859,157.951416 225.489273,154.535278 210.017365,150.431198 
	C206.951736,149.618011 206.225800,150.591797 205.938110,153.352722 
	C205.670410,155.921982 204.900696,158.438950 204.023041,161.788925 
M250.198135,233.994446 
	C247.493988,233.994446 244.789825,233.994446 241.319000,233.994446 
	C247.023499,225.495590 252.131653,217.900574 257.221588,210.293350 
	C258.944275,207.718674 260.546082,204.807831 257.055542,202.689743 
	C253.781952,200.703278 250.654190,201.938354 248.530319,205.016678 
	C242.099899,214.336899 235.629562,223.635956 229.511765,233.159760 
	C228.373886,234.931137 227.868088,238.215561 228.770950,239.878479 
	C229.667892,241.530457 232.660278,242.733917 234.818436,242.879608 
	C240.725525,243.278366 246.677155,243.016983 252.438583,243.016983 
	C253.862900,247.176361 251.023804,253.172867 258.301422,253.006744 
	C264.504395,252.865128 262.600067,248.046844 263.167816,244.407379 
	C264.570892,243.946640 266.366852,243.813980 267.469299,242.870728 
	C268.652649,241.858246 269.738922,240.120407 269.836578,238.631470 
	C269.925415,237.277115 268.729401,234.677963 267.930786,234.609894 
	C261.656708,234.075027 263.095490,229.427963 263.088196,225.812332 
	C263.080475,221.985931 261.936890,219.851776 257.728027,219.948486 
	C253.630890,220.042648 253.056870,222.432419 252.886703,225.840408 
	C252.750351,228.570999 251.733856,231.257645 250.198135,233.994446 
M200.038544,101.666649 
	C205.588257,91.873222 211.137970,82.079788 217.219772,71.347389 
	C196.109528,79.813591 177.146011,89.786842 160.836929,106.583084 
	C171.405930,112.117271 181.301132,117.298645 191.523666,122.651405 
	C194.513657,115.491318 197.238342,108.966568 200.038544,101.666649 
M198.989716,374.526978 
	C204.888138,377.208160 210.786545,379.889343 217.524139,382.951996 
	C217.012512,381.165253 216.998489,380.616577 216.731262,380.255157 
	C206.506378,366.426727 198.800598,351.319275 193.320129,335.018524 
	C193.025620,334.142517 190.015244,333.209534 188.942215,333.719452 
	C180.659225,337.655579 172.556244,341.968750 164.367065,346.104828 
	C161.162643,347.723297 161.211365,349.500641 164.015869,351.363037 
	C175.450745,358.956726 186.919632,366.499237 198.989716,374.526978 
M341.533295,90.027779 
	C346.404999,100.660568 351.276703,111.293365 356.398743,122.472542 
	C366.524628,117.085106 376.470245,111.793571 386.872498,106.259094 
	C369.928925,90.769066 351.755402,79.660545 330.074219,71.740746 
	C334.171173,78.359444 337.604462,83.905930 341.533295,90.027779 
M379.384338,344.030182 
	C371.576263,340.060303 363.768219,336.090393 356.726318,332.510071 
	C348.095886,349.739136 340.013733,365.873718 331.972565,381.926422 
	C351.436493,373.797577 370.260498,363.785614 386.206909,348.357330 
	C383.795135,346.853455 381.890350,345.665710 379.384338,344.030182 
M341.598755,253.003265 
	C343.303680,252.057251 345.862671,251.537109 346.579987,250.098602 
	C352.991364,237.241806 359.161652,224.261963 365.222046,211.234238 
	C367.897522,205.482956 365.538910,202.042633 359.205292,202.009293 
	C351.553650,201.969025 343.901245,202.045792 336.249939,201.980545 
	C332.392456,201.947647 330.032043,203.372162 329.991974,207.554611 
	C329.951019,211.826553 333.040619,212.196075 336.088165,212.269394 
	C341.661896,212.403473 347.241180,212.307541 353.187988,212.307541 
	C352.791779,213.141418 352.535187,213.698425 352.264557,214.248566 
	C347.438812,224.058060 342.515564,233.821152 337.820282,243.692673 
	C335.006042,249.609451 335.389191,250.377075 341.598755,253.003265 
M182.989197,213.598236 
	C182.948746,224.235291 182.905441,234.872345 182.868851,245.509415 
	C182.845139,252.406525 183.415680,252.997711 190.064941,253.001175 
	C197.714188,253.005157 205.370468,252.812500 213.009674,253.090439 
	C216.726013,253.225662 218.905060,251.774826 218.883148,248.323242 
	C218.860092,244.686172 216.445908,242.912994 212.684174,242.967529 
	C206.579605,243.056046 200.472809,242.991379 193.999710,242.991379 
	C193.999710,240.965469 193.999680,239.344391 193.999710,237.723328 
	C193.999924,227.746033 193.956223,217.768433 194.021469,207.791565 
	C194.048462,203.664078 191.059189,201.915085 188.091370,202.310928 
	C186.185318,202.565155 184.330124,205.573044 183.113602,207.721237 
	C182.401123,208.979324 182.987823,210.973145 182.989197,213.598236 
z"/>
<path fill="#000000" opacity="1.000000" stroke="none" 
	d="
M473.321442,293.737366 
	C491.629150,300.060364 509.645935,306.024658 527.512817,312.408539 
	C529.702271,313.190887 532.132751,316.047333 532.500488,318.265930 
	C532.769897,319.891296 530.224548,322.688507 528.271667,323.850830 
	C521.058350,328.144043 513.490112,331.836426 506.210297,336.024048 
	C500.548187,339.281097 500.176819,343.647034 504.819611,348.296722 
	C514.703308,358.195160 524.608093,368.072510 534.484863,377.977844 
	C539.211060,382.717682 539.236084,385.236145 534.598999,389.907745 
	C529.908142,394.633545 525.143066,399.285828 520.462158,404.021271 
	C517.438843,407.079681 514.569153,407.072418 511.529968,404.018097 
	C501.312164,393.749329 491.063751,383.510864 480.795715,373.292328 
	C475.241302,367.764679 470.408691,368.635834 466.770752,375.645905 
	C463.061310,382.793793 459.455475,390.010895 455.346710,396.925812 
	C454.240173,398.788025 451.468170,400.678680 449.463989,400.675140 
	C447.788300,400.672180 445.252594,398.229401 444.582367,396.340302 
	C439.608093,382.320343 435.016388,368.164917 430.282501,354.059387 
	C422.976044,332.288239 415.623840,310.532349 408.367767,288.744446 
	C407.351898,285.694000 406.342865,282.533783 406.082977,279.362732 
	C405.624756,273.771759 408.100098,272.117340 413.561127,273.913940 
	C433.373230,280.432007 453.177643,286.973572 473.321442,293.737366 
z"/>
<path fill="#000000" opacity="1.000000" stroke="none" 
	d="
M410.420166,321.774902 
	C407.509735,319.679535 404.581665,319.446899 401.308502,321.160492 
	C400.303650,321.686523 398.521790,321.521088 397.440186,320.981659 
	C389.142456,316.843536 380.859039,312.661926 372.761292,308.152466 
	C371.437439,307.415222 370.157532,304.868225 370.375519,303.380096 
	C371.591644,295.078156 373.275055,286.844696 374.901855,278.028809 
	C383.510956,278.615814 392.469543,277.805420 399.721802,270.430328 
	C396.374817,281.184052 401.526489,290.236053 404.304596,299.638428 
	C406.340118,306.527588 408.757507,313.303925 410.867676,320.732971 
	C410.627197,321.481903 410.523682,321.628387 410.420166,321.774902 
z"/>
<path fill="#000000" opacity="1.000000" stroke="none" 
	d="
M413.066589,245.000763 
	C419.198486,245.000763 424.837433,245.000763 430.439270,245.000763 
	C433.178345,253.814835 425.211853,262.026917 429.747864,270.946136 
	C420.721527,270.040375 412.560638,261.962280 403.354950,268.167175 
	C404.571777,260.462433 405.743195,253.045212 407.013672,245.000763 
	C408.362640,245.000763 410.468109,245.000763 413.066589,245.000763 
z"/>
<path fill="#000000" opacity="1.000000" stroke="none" 
	d="
M410.905090,321.130524 
	C411.322357,321.488983 411.565247,322.052338 411.808105,322.615723 
	C411.472992,322.483826 411.137878,322.351929 410.611450,321.997437 
	C410.523682,321.628387 410.627197,321.481903 410.905090,321.130524 
z"/>
<path fill="#FFFFFF" opacity="1.000000" stroke="none" 
	d="
M168.310913,319.268188 
	C160.561035,323.619904 153.119781,327.739563 145.274872,332.082733 
	C122.735130,305.081696 110.968872,273.657562 107.882545,238.314728 
	C121.464790,238.314728 134.875366,238.314728 149.006226,238.314728 
	C149.006226,242.615799 149.106155,247.204041 148.986816,251.786575 
	C148.673584,263.814148 157.711838,271.369415 168.304230,271.007416 
	C172.098389,270.877747 175.900696,270.986633 179.346191,270.986633 
	C181.569763,284.768585 183.719208,298.091064 185.870346,311.424072 
	C180.100861,313.969910 174.360214,316.503052 168.310913,319.268188 
M161.390396,314.963745 
	C165.744278,312.933075 170.185455,311.063965 174.404480,308.783783 
	C175.873779,307.989685 177.951080,306.008911 177.781494,304.861053 
	C176.467316,295.965302 174.670837,287.140808 172.954269,277.921539 
	C164.224197,278.641418 155.643738,277.446503 148.748703,270.328796 
	C141.844391,263.201508 141.700897,254.334076 141.998734,245.187653 
	C133.168884,245.187653 124.763168,245.187653 115.733047,245.187653 
	C119.582405,274.034729 129.412247,300.044556 146.973312,322.793793 
	C151.750702,320.078033 156.187714,317.555756 161.390396,314.963745 
z"/>
<path fill="#FEFEFE" opacity="1.000000" stroke="none" 
	d="
M181.754791,141.302216 
	C185.620514,142.078217 186.083496,143.456635 185.295609,147.260605 
	C183.024063,158.227722 181.564026,169.373428 180.101913,180.490631 
	C179.715118,183.431564 178.565323,184.045853 175.950272,183.927170 
	C172.315613,183.762222 168.657700,183.769775 165.024765,183.972687 
	C155.247986,184.518799 149.073883,191.165802 149.012329,201.063675 
	C148.982468,205.864639 149.007172,210.665939 149.007172,215.740204 
	C135.220901,215.740204 121.679359,215.740204 108.124825,215.740204 
	C110.574379,176.882492 126.938660,143.244629 144.726212,122.852036 
	C157.052124,128.955627 169.253250,134.997437 181.754791,141.302216 
M128.958755,161.475449 
	C122.029434,176.456406 117.707947,192.138214 115.936607,208.648987 
	C124.840370,208.648987 133.382675,208.648987 141.998245,208.648987 
	C141.998245,205.970779 141.993698,203.641647 141.999039,201.312531 
	C142.023285,190.757416 146.511047,182.630585 156.245056,178.525391 
	C160.255859,176.833878 165.227661,177.313797 169.776489,177.049057 
	C172.156158,176.910553 173.761688,176.808151 174.084412,173.685898 
	C174.981766,165.004456 176.294708,156.365982 177.439331,147.741791 
	C168.627899,143.180786 159.174210,138.764343 150.266724,133.434998 
	C146.843918,131.387146 145.535309,132.300354 144.043533,134.833099 
	C138.985046,143.421402 134.027557,152.069168 128.958755,161.475449 
z"/>
<path fill="#FFFFFF" opacity="1.000000" stroke="none" 
	d="
M368.078613,140.008026 
	C378.302032,134.828552 388.176910,129.762695 397.923309,124.460678 
	C400.782227,122.905418 402.832733,122.547829 404.984772,125.511169 
	C417.493896,142.736374 427.698792,161.180206 433.218201,181.812012 
	C436.142853,192.744598 437.713348,204.039444 440.029846,215.857727 
	C425.784454,215.857727 412.629333,215.857727 398.999176,215.857727 
	C398.999176,211.760971 398.748138,207.799240 399.044800,203.878952 
	C400.061462,190.444443 392.374237,183.653702 378.914551,183.046631 
	C375.481293,182.891785 372.035095,183.023392 368.760010,183.023392 
	C366.492371,170.628891 364.275421,158.356705 361.989807,146.097305 
	C361.111511,141.386169 365.640411,141.913788 368.078613,140.008026 
M412.624359,208.999069 
	C418.640594,209.393661 424.656799,209.788269 431.424469,210.232162 
	C428.185913,180.770935 417.495056,155.201385 400.681427,131.974884 
	C390.901154,136.952438 381.328552,141.756180 371.857300,146.752075 
	C370.929688,147.241379 369.968079,149.023010 370.135101,150.017914 
	C371.576385,158.601013 373.273163,167.141235 374.916351,175.813370 
	C383.367340,177.058502 392.553070,176.275726 399.728302,183.949051 
	C406.899445,191.617981 405.797485,200.711807 406.026794,209.306274 
	C408.142090,209.191681 409.919891,209.095367 412.624359,208.999069 
z"/>
<path fill="#FFFFFF" opacity="1.000000" stroke="none" 
	d="
M307.731567,78.329056 
	C317.881653,89.936058 324.809357,103.030426 330.413605,116.889626 
	C331.729523,120.143913 332.997284,123.441879 333.896118,126.823692 
	C334.122559,127.675697 332.979279,129.748245 332.230194,129.875534 
	C319.441803,132.048615 306.630096,134.099472 293.789124,135.936920 
	C290.722412,136.375748 286.354370,137.152847 284.727112,135.570831 
	C283.093140,133.982346 284.024628,129.643768 284.018829,126.510063 
	C283.982941,107.211906 283.983124,87.913620 284.026642,68.615501 
	C284.030792,66.773544 284.415771,64.932442 284.659363,62.777550 
	C294.151093,66.027992 300.968597,71.830620 307.731567,78.329056 
M299.265259,128.999420 
	C306.894012,127.665688 314.516327,126.293488 322.154724,125.017387 
	C325.148407,124.517250 325.649384,123.219452 324.211212,120.591675 
	C318.375977,109.930092 313.207092,98.850288 306.656281,88.654739 
	C302.952972,82.890968 297.041443,78.546013 291.230530,72.655769 
	C291.230530,92.597282 291.230530,110.639709 291.230530,128.999557 
	C293.747650,128.999557 296.039124,128.999557 299.265259,128.999420 
z"/>
<path fill="#FFFFFF" opacity="1.000000" stroke="none" 
	d="
M317.785156,321.018646 
	C322.287628,322.020081 326.320099,323.176361 330.425751,323.938416 
	C333.866913,324.577118 334.928040,326.632568 333.757294,329.475372 
	C326.285522,347.618408 318.410553,365.598541 303.905579,379.495697 
	C298.445404,384.727020 292.304504,389.202667 284.263824,391.143372 
	C284.163208,389.373138 284.012177,387.943359 284.011108,386.513428 
	C283.994934,365.063385 284.039185,343.613220 283.959839,322.163483 
	C283.945648,318.321503 284.167786,316.679047 289.201172,317.680634 
	C298.437683,319.518585 307.949707,319.972046 317.785156,321.018646 
M297.319702,375.972839 
	C311.069183,363.396759 318.550354,346.929688 325.871826,329.851349 
	C314.349518,328.000763 302.932220,326.167023 291.338135,324.304871 
	C291.338135,343.569733 291.338135,361.709229 291.338135,380.802216 
	C293.518341,378.822388 295.051361,377.430298 297.319702,375.972839 
z"/>
<path fill="#FFFFFF" opacity="1.000000" stroke="none" 
	d="
M262.999390,116.999695 
	C262.999390,123.810646 262.999390,130.121719 262.999390,136.998444 
	C256.903351,136.649353 250.979019,136.807144 245.233322,135.869919 
	C235.490524,134.280701 225.885086,131.865616 216.168411,130.090561 
	C213.135605,129.536514 212.928558,128.727249 213.892166,125.938385 
	C220.807007,105.925430 229.736008,87.097694 245.901733,72.768227 
	C250.481003,68.709122 256.115082,65.840027 261.265411,62.425163 
	C261.843414,62.749489 262.421387,63.073814 262.999390,63.398140 
	C262.999390,81.098694 262.999390,98.799255 262.999390,116.999695 
M232.276932,126.039413 
	C240.035797,127.278191 247.794647,128.516968 255.773849,129.790939 
	C255.773849,110.472084 255.773849,92.474106 255.773849,73.725868 
	C238.646454,87.055214 229.386795,104.719612 221.935455,124.385040 
	C225.452713,124.985855 228.428818,125.494225 232.276932,126.039413 
z"/>
<path fill="#FEFEFE" opacity="1.000000" stroke="none" 
	d="
M250.268616,384.772583 
	C240.856628,377.983826 233.756317,369.500153 228.478073,359.771484 
	C222.601791,348.940491 217.686417,337.588135 211.867203,325.449951 
	C218.966827,323.785919 224.859924,322.072449 230.871658,321.071899 
	C240.373840,319.490387 249.955658,318.387451 259.503632,317.080902 
	C262.629059,316.653229 263.044220,318.505066 263.029114,321.017517 
	C262.967987,331.181976 263.001312,341.347015 263.000824,351.511841 
	C263.000244,364.502258 263.000671,377.492645 263.000671,391.812286 
	C258.398407,389.307343 254.466766,387.167419 250.268616,384.772583 
M255.995956,378.577087 
	C255.995956,360.800385 255.995956,343.023682 255.995956,324.328003 
	C244.349457,326.250885 233.313461,328.072968 221.348923,330.048340 
	C226.143387,339.402435 230.232269,348.132568 234.998260,356.475952 
	C240.220734,365.618408 246.202667,374.280151 255.995956,378.577087 
z"/>
<path fill="#FFFFFF" opacity="1.000000" stroke="none" 
	d="
M284.999146,209.338852 
	C285.117798,204.052765 287.443542,201.781647 292.427185,201.953705 
	C298.245087,202.154541 304.120514,201.579147 309.878632,202.198761 
	C312.319946,202.461472 315.584259,204.407623 316.571381,206.490570 
	C317.805328,209.094406 316.103271,211.915482 312.413605,211.993607 
	C308.920227,212.067581 305.424164,212.013992 301.929260,212.015121 
	C294.717896,212.017441 294.717896,212.017044 295.279327,219.977890 
	C297.946136,219.977890 300.664612,219.812866 303.356659,220.009598 
	C310.707214,220.546799 315.981903,224.392670 317.714172,230.271393 
	C319.796783,237.338913 317.488831,244.800873 312.302124,249.261963 
	C305.450470,255.155121 291.152283,253.941925 284.775635,249.286057 
	C281.828491,247.134201 280.733673,244.016998 282.602509,241.110611 
	C284.446655,238.242676 287.292145,239.086395 290.320618,240.507629 
	C293.440887,241.971893 297.196594,243.000259 300.551666,242.725006 
	C302.809540,242.539795 306.014862,240.154755 306.733337,238.049774 
	C307.927094,234.552231 306.980530,230.724075 302.144226,229.968307 
	C299.422180,229.542953 296.576263,228.738235 293.941772,229.135727 
	C284.596680,230.545685 282.751099,228.988785 283.987640,220.069260 
	C284.460144,216.660904 284.669769,213.216095 284.999146,209.338852 
z"/>
<path fill="#FFFFFF" opacity="1.000000" stroke="none" 
	d="
M290.094696,296.003906 
	C285.403503,296.645050 283.621857,295.182404 283.903320,290.591217 
	C284.288879,284.302734 283.999725,277.972870 283.999725,271.326538 
	C304.634033,271.326538 325.140472,271.326538 346.654358,271.326538 
	C344.769379,282.330475 342.923950,293.103638 341.194916,303.197266 
	C323.921356,300.744263 307.241638,298.375580 290.094696,296.003906 
M314.500000,278.000244 
	C306.750275,278.000244 299.000549,278.000244 291.242432,278.000244 
	C291.242432,281.934998 291.242432,285.343811 291.242432,288.302765 
	C306.212311,290.559601 320.878784,292.770691 335.749756,295.012634 
	C336.609650,289.236542 337.423157,283.771820 338.282349,278.000244 
	C330.088531,278.000244 322.794250,278.000244 314.500000,278.000244 
z"/>
<path fill="#FFFFFF" opacity="1.000000" stroke="none" 
	d="
M313.742004,155.972900 
	C322.852081,153.957092 331.519257,151.955307 341.146362,149.731812 
	C343.030975,160.657104 344.890411,171.436249 346.868500,182.903412 
	C325.449036,182.903412 304.963623,182.903412 284.229095,182.903412 
	C284.229095,175.001022 284.229095,167.248978 284.229095,158.973923 
	C293.881134,157.982162 303.590118,156.984543 313.742004,155.972900 
M291.515900,176.924973 
	C306.980011,176.924973 322.444122,176.924973 338.523651,176.924973 
	C337.472321,169.978729 336.655182,164.579620 335.833313,159.149490 
	C320.721558,161.492172 305.944122,163.783020 291.038391,166.093750 
	C291.038391,169.167343 291.038391,172.646896 291.515900,176.924973 
z"/>
<path fill="#FFFFFF" opacity="1.000000" stroke="none" 
	d="
M227.695251,299.701202 
	C221.795120,301.132874 216.203842,302.127563 210.727280,303.560547 
	C208.395294,304.170715 206.608612,304.258789 206.156952,301.670410 
	C204.420486,291.719177 202.876602,281.734283 201.186829,271.304749 
	C222.178665,271.304749 242.257080,271.304749 262.987457,271.304749 
	C262.987457,278.676544 263.077240,286.264374 262.847351,293.842499 
	C262.824585,294.592468 260.908813,295.785156 259.768829,295.923248 
	C249.208939,297.202332 238.626465,298.294891 227.695251,299.701202 
M218.544235,278.000916 
	C215.765869,278.000916 212.987503,278.000916 209.469803,278.000916 
	C210.448685,284.331451 211.332642,290.048065 212.098816,295.002930 
	C226.785858,292.752655 241.288406,290.530640 255.700623,288.322479 
	C255.700623,284.988281 255.700623,281.587097 255.700623,278.000916 
	C243.447144,278.000916 231.491211,278.000916 218.544235,278.000916 
z"/>
<path fill="#FEFEFE" opacity="1.000000" stroke="none" 
	d="
M204.187515,161.383926 
	C204.900696,158.438950 205.670410,155.921982 205.938110,153.352722 
	C206.225800,150.591797 206.951736,149.618011 210.017365,150.431198 
	C225.489273,154.535278 241.089859,157.951416 257.226929,158.046280 
	C259.007507,158.056732 260.784149,158.736755 263.007446,159.198669 
	C263.007446,166.402802 263.118927,173.707687 262.872040,181.000458 
	C262.839691,181.955353 260.969360,183.650040 259.949982,183.650330 
	C241.968475,183.655441 223.987061,183.388657 206.005219,183.345261 
	C202.590836,183.337021 200.916183,183.072861 201.860977,178.786819 
	C203.085464,173.231918 203.346970,167.464722 204.187515,161.383926 
M255.994263,166.712418 
	C254.897736,166.142334 253.848511,165.214432 252.696747,165.062180 
	C246.719208,164.272003 240.683990,163.884354 234.728912,162.966736 
	C227.274643,161.818100 219.878738,160.290756 211.990921,158.841095 
	C210.989822,165.054642 210.054565,170.859482 209.102097,176.771149 
	C224.813690,176.771149 240.239731,176.771149 255.997681,176.771149 
	C255.997681,173.586884 255.997681,170.624557 255.994263,166.712418 
z"/>
<path fill="#FFFFFF" opacity="1.000000" stroke="none" 
	d="
M250.653046,233.979126 
	C251.733856,231.257645 252.750351,228.570999 252.886703,225.840408 
	C253.056870,222.432419 253.630890,220.042648 257.728027,219.948486 
	C261.936890,219.851776 263.080475,221.985931 263.088196,225.812332 
	C263.095490,229.427963 261.656708,234.075027 267.930786,234.609894 
	C268.729401,234.677963 269.925415,237.277115 269.836578,238.631470 
	C269.738922,240.120407 268.652649,241.858246 267.469299,242.870728 
	C266.366852,243.813980 264.570892,243.946640 263.167816,244.407379 
	C262.600067,248.046844 264.504395,252.865128 258.301422,253.006744 
	C251.023804,253.172867 253.862900,247.176361 252.438583,243.016983 
	C246.677155,243.016983 240.725525,243.278366 234.818436,242.879608 
	C232.660278,242.733917 229.667892,241.530457 228.770950,239.878479 
	C227.868088,238.215561 228.373886,234.931137 229.511765,233.159760 
	C235.629562,223.635956 242.099899,214.336899 248.530319,205.016678 
	C250.654190,201.938354 253.781952,200.703278 257.055542,202.689743 
	C260.546082,204.807831 258.944275,207.718674 257.221588,210.293350 
	C252.131653,217.900574 247.023499,225.495590 241.319000,233.994446 
	C244.789825,233.994446 247.493988,233.994446 250.653046,233.979126 
z"/>
<path fill="#FEFEFE" opacity="1.000000" stroke="none" 
	d="
M200.000778,102.054230 
	C197.238342,108.966568 194.513657,115.491318 191.523666,122.651405 
	C181.301132,117.298645 171.405930,112.117271 160.836929,106.583084 
	C177.146011,89.786842 196.109528,79.813591 217.219772,71.347389 
	C211.137970,82.079788 205.588257,91.873222 200.000778,102.054230 
M176.001190,102.500748 
	C175.083176,103.218964 174.165161,103.937187 172.793060,105.010643 
	C176.955002,107.176971 180.706726,109.321724 184.640274,111.053444 
	C185.736832,111.536186 188.296860,111.232758 188.616272,110.552826 
	C192.083160,103.172623 195.237244,95.645477 198.476639,88.158401 
	C198.257645,87.883621 198.038635,87.608841 197.819641,87.334061 
	C190.719299,92.219368 183.618942,97.104675 176.001190,102.500748 
z"/>
<path fill="#FFFFFF" opacity="1.000000" stroke="none" 
	d="
M198.682861,374.293793 
	C186.919632,366.499237 175.450745,358.956726 164.015869,351.363037 
	C161.211365,349.500641 161.162643,347.723297 164.367065,346.104828 
	C172.556244,341.968750 180.659225,337.655579 188.942215,333.719452 
	C190.015244,333.209534 193.025620,334.142517 193.320129,335.018524 
	C198.800598,351.319275 206.506378,366.426727 216.731262,380.255157 
	C216.998489,380.616577 217.012512,381.165253 217.524139,382.951996 
	C210.786545,379.889343 204.888138,377.208160 198.682861,374.293793 
M198.268814,365.958923 
	C194.787308,357.855865 191.305801,349.752838 187.741867,341.457886 
	C182.300812,344.370636 177.694717,346.836395 172.436966,349.651001 
	C181.124023,355.297668 189.321152,360.625885 198.268814,365.958923 
z"/>
<path fill="#FEFEFE" opacity="1.000000" stroke="none" 
	d="
M341.285522,89.740097 
	C337.604462,83.905930 334.171173,78.359444 330.074219,71.740746 
	C351.755402,79.660545 369.928925,90.769066 386.872498,106.259094 
	C376.470245,111.793571 366.524628,117.085106 356.398743,122.472542 
	C351.276703,111.293365 346.404999,100.660568 341.285522,89.740097 
M349.037720,88.750839 
	C352.636383,96.679077 356.235077,104.607315 359.852264,112.576385 
	C364.438812,110.268936 369.274628,107.836075 375.514954,104.696625 
	C366.215637,98.785225 357.839752,93.460808 349.037720,88.750839 
z"/>
<path fill="#FFFFFF" opacity="1.000000" stroke="none" 
	d="
M379.684937,344.254089 
	C381.890350,345.665710 383.795135,346.853455 386.206909,348.357330 
	C370.260498,363.785614 351.436493,373.797577 331.972565,381.926422 
	C340.013733,365.873718 348.095886,349.739136 356.726318,332.510071 
	C363.768219,336.090393 371.576263,340.060303 379.684937,344.254089 
M352.033081,358.664734 
	C351.359070,360.691498 350.685059,362.718262 350.011047,364.745056 
	C350.299713,364.995819 350.588348,365.246582 350.877014,365.497345 
	C358.659058,360.328888 366.441071,355.160461 374.926147,349.525116 
	C369.147858,346.620422 364.364227,344.215759 359.756317,341.899414 
	C357.203369,347.553833 354.841919,352.784027 352.033081,358.664734 
z"/>
<path fill="#FEFEFE" opacity="1.000000" stroke="none" 
	d="
M341.196808,253.002670 
	C335.389191,250.377075 335.006042,249.609451 337.820282,243.692673 
	C342.515564,233.821152 347.438812,224.058060 352.264557,214.248566 
	C352.535187,213.698425 352.791779,213.141418 353.187988,212.307541 
	C347.241180,212.307541 341.661896,212.403473 336.088165,212.269394 
	C333.040619,212.196075 329.951019,211.826553 329.991974,207.554611 
	C330.032043,203.372162 332.392456,201.947647 336.249939,201.980545 
	C343.901245,202.045792 351.553650,201.969025 359.205292,202.009293 
	C365.538910,202.042633 367.897522,205.482956 365.222046,211.234238 
	C359.161652,224.261963 352.991364,237.241806 346.579987,250.098602 
	C345.862671,251.537109 343.303680,252.057251 341.196808,253.002670 
z"/>
<path fill="#FFFFFF" opacity="1.000000" stroke="none" 
	d="
M182.989655,213.117126 
	C182.987823,210.973145 182.401123,208.979324 183.113602,207.721237 
	C184.330124,205.573044 186.185318,202.565155 188.091370,202.310928 
	C191.059189,201.915085 194.048462,203.664078 194.021469,207.791565 
	C193.956223,217.768433 193.999924,227.746033 193.999710,237.723328 
	C193.999680,239.344391 193.999710,240.965469 193.999710,242.991379 
	C200.472809,242.991379 206.579605,243.056046 212.684174,242.967529 
	C216.445908,242.912994 218.860092,244.686172 218.883148,248.323242 
	C218.905060,251.774826 216.726013,253.225662 213.009674,253.090439 
	C205.370468,252.812500 197.714188,253.005157 190.064941,253.001175 
	C183.415680,252.997711 182.845139,252.406525 182.868851,245.509415 
	C182.905441,234.872345 182.948746,224.235291 182.989655,213.117126 
z"/>
<path fill="#000000" opacity="1.000000" stroke="none" 
	d="
M161.007568,314.998596 
	C156.187714,317.555756 151.750702,320.078033 146.973312,322.793793 
	C129.412247,300.044556 119.582405,274.034729 115.733047,245.187653 
	C124.763168,245.187653 133.168884,245.187653 141.998734,245.187653 
	C141.700897,254.334076 141.844391,263.201508 148.748703,270.328796 
	C155.643738,277.446503 164.224197,278.641418 172.954269,277.921539 
	C174.670837,287.140808 176.467316,295.965302 177.781494,304.861053 
	C177.951080,306.008911 175.873779,307.989685 174.404480,308.783783 
	C170.185455,311.063965 165.744278,312.933075 161.007568,314.998596 
z"/>
<path fill="#000000" opacity="1.000000" stroke="none" 
	d="
M128.995117,161.084824 
	C134.027557,152.069168 138.985046,143.421402 144.043533,134.833099 
	C145.535309,132.300354 146.843918,131.387146 150.266724,133.434998 
	C159.174210,138.764343 168.627899,143.180786 177.439331,147.741791 
	C176.294708,156.365982 174.981766,165.004456 174.084412,173.685898 
	C173.761688,176.808151 172.156158,176.910553 169.776489,177.049057 
	C165.227661,177.313797 160.255859,176.833878 156.245056,178.525391 
	C146.511047,182.630585 142.023285,190.757416 141.999039,201.312531 
	C141.993698,203.641647 141.998245,205.970779 141.998245,208.648987 
	C133.382675,208.648987 124.840370,208.648987 115.936607,208.648987 
	C117.707947,192.138214 122.029434,176.456406 128.995117,161.084824 
z"/>
<path fill="#000000" opacity="1.000000" stroke="none" 
	d="
M412.161011,208.999069 
	C409.919891,209.095367 408.142090,209.191681 406.026794,209.306274 
	C405.797485,200.711807 406.899445,191.617981 399.728302,183.949051 
	C392.553070,176.275726 383.367340,177.058502 374.916351,175.813370 
	C373.273163,167.141235 371.576385,158.601013 370.135101,150.017914 
	C369.968079,149.023010 370.929688,147.241379 371.857300,146.752075 
	C381.328552,141.756180 390.901154,136.952438 400.681427,131.974884 
	C417.495056,155.201385 428.185913,180.770935 431.424469,210.232162 
	C424.656799,209.788269 418.640594,209.393661 412.161011,208.999069 
z"/>
<path fill="#000000" opacity="1.000000" stroke="none" 
	d="
M298.797913,128.999481 
	C296.039124,128.999557 293.747650,128.999557 291.230530,128.999557 
	C291.230530,110.639709 291.230530,92.597282 291.230530,72.655769 
	C297.041443,78.546013 302.952972,82.890968 306.656281,88.654739 
	C313.207092,98.850288 318.375977,109.930092 324.211212,120.591675 
	C325.649384,123.219452 325.148407,124.517250 322.154724,125.017387 
	C314.516327,126.293488 306.894012,127.665688 298.797913,128.999481 
z"/>
<path fill="#000000" opacity="1.000000" stroke="none" 
	d="
M296.952026,376.005493 
	C295.051361,377.430298 293.518341,378.822388 291.338135,380.802216 
	C291.338135,361.709229 291.338135,343.569733 291.338135,324.304871 
	C302.932220,326.167023 314.349518,328.000763 325.871826,329.851349 
	C318.550354,346.929688 311.069183,363.396759 296.952026,376.005493 
z"/>
<path fill="#000000" opacity="1.000000" stroke="none" 
	d="
M231.840942,126.021004 
	C228.428818,125.494225 225.452713,124.985855 221.935455,124.385040 
	C229.386795,104.719612 238.646454,87.055214 255.773849,73.725868 
	C255.773849,92.474106 255.773849,110.472084 255.773849,129.790939 
	C247.794647,128.516968 240.035797,127.278191 231.840942,126.021004 
z"/>
<path fill="#000000" opacity="1.000000" stroke="none" 
	d="
M255.972260,378.980896 
	C246.202667,374.280151 240.220734,365.618408 234.998260,356.475952 
	C230.232269,348.132568 226.143387,339.402435 221.348923,330.048340 
	C233.313461,328.072968 244.349457,326.250885 255.995956,324.328003 
	C255.995956,343.023682 255.995956,360.800385 255.972260,378.980896 
z"/>
<path fill="#000000" opacity="1.000000" stroke="none" 
	d="
M315.000000,278.000244 
	C322.794250,278.000244 330.088531,278.000244 338.282349,278.000244 
	C337.423157,283.771820 336.609650,289.236542 335.749756,295.012634 
	C320.878784,292.770691 306.212311,290.559601 291.242432,288.302765 
	C291.242432,285.343811 291.242432,281.934998 291.242432,278.000244 
	C299.000549,278.000244 306.750275,278.000244 315.000000,278.000244 
z"/>
<path fill="#000000" opacity="1.000000" stroke="none" 
	d="
M291.277161,176.525696 
	C291.038391,172.646896 291.038391,169.167343 291.038391,166.093750 
	C305.944122,163.783020 320.721558,161.492172 335.833313,159.149490 
	C336.655182,164.579620 337.472321,169.978729 338.523651,176.924973 
	C322.444122,176.924973 306.980011,176.924973 291.277161,176.525696 
z"/>
<path fill="#000000" opacity="1.000000" stroke="none" 
	d="
M219.039764,278.000916 
	C231.491211,278.000916 243.447144,278.000916 255.700623,278.000916 
	C255.700623,281.587097 255.700623,284.988281 255.700623,288.322479 
	C241.288406,290.530640 226.785858,292.752655 212.098816,295.002930 
	C211.332642,290.048065 210.448685,284.331451 209.469803,278.000916 
	C212.987503,278.000916 215.765869,278.000916 219.039764,278.000916 
z"/>
<path fill="#000000" opacity="1.000000" stroke="none" 
	d="
M255.995972,167.187317 
	C255.997681,170.624557 255.997681,173.586884 255.997681,176.771149 
	C240.239731,176.771149 224.813690,176.771149 209.102097,176.771149 
	C210.054565,170.859482 210.989822,165.054642 211.990921,158.841095 
	C219.878738,160.290756 227.274643,161.818100 234.728912,162.966736 
	C240.683990,163.884354 246.719208,164.272003 252.696747,165.062180 
	C253.848511,165.214432 254.897736,166.142334 255.995972,167.187317 
z"/>
<path fill="#000000" opacity="1.000000" stroke="none" 
	d="
M176.259888,102.245361 
	C183.618942,97.104675 190.719299,92.219368 197.819641,87.334061 
	C198.038635,87.608841 198.257645,87.883621 198.476639,88.158401 
	C195.237244,95.645477 192.083160,103.172623 188.616272,110.552826 
	C188.296860,111.232758 185.736832,111.536186 184.640274,111.053444 
	C180.706726,109.321724 176.955002,107.176971 172.793060,105.010643 
	C174.165161,103.937187 175.083176,103.218964 176.259888,102.245361 
z"/>
<path fill="#000000" opacity="1.000000" stroke="none" 
	d="
M197.893555,365.956512 
	C189.321152,360.625885 181.124023,355.297668 172.436966,349.651001 
	C177.694717,346.836395 182.300812,344.370636 187.741867,341.457886 
	C191.305801,349.752838 194.787308,357.855865 197.893555,365.956512 
z"/>
<path fill="#000000" opacity="1.000000" stroke="none" 
	d="
M349.250793,88.443619 
	C357.839752,93.460808 366.215637,98.785225 375.514954,104.696625 
	C369.274628,107.836075 364.438812,110.268936 359.852264,112.576385 
	C356.235077,104.607315 352.636383,96.679077 349.250793,88.443619 
z"/>
<path fill="#000000" opacity="1.000000" stroke="none" 
	d="
M352.256775,358.339478 
	C354.841919,352.784027 357.203369,347.553833 359.756317,341.899414 
	C364.364227,344.215759 369.147858,346.620422 374.926147,349.525116 
	C366.441071,355.160461 358.659058,360.328888 350.877014,365.497345 
	C350.588348,365.246582 350.299713,364.995819 350.011047,364.745056 
	C350.685059,362.718262 351.359070,360.691498 352.256775,358.339478 
z"/>
</svg>